<!--?xml version="1.0" encoding="utf-8"?-->
<!-- Generator: Adobe Illustrator 18.0.0, SVG Export Plug-In . SVG Version: 6.00 Build 0)  -->

<svg version="1.1" id="_x32_" xmlns="http://www.w3.org/2000/svg" xmlns:xlink="http://www.w3.org/1999/xlink" x="0px" y="0px" viewBox="0 0 512 512" style="width: 256px; height: 256px; opacity: 1;" xml:space="preserve">
<style type="text/css">
	.st0{fill:#4B4B4B;}
</style>
<g>
	<path class="st0" d="M348.375,384.758c-12.811-25.137-32.785-44.594-56.582-54.492v-38.5l0.047-9.133c-0.016,0-0.031,0-0.047,0.004
		v-0.242c-11.588,2.262-23.551,3.481-35.791,3.481c-11.369,0-22.476-1.094-33.291-3.055c-0.752-0.152-1.516-0.262-2.264-0.426v0.043
		c-0.08-0.016-0.16-0.028-0.24-0.043v47.871c-12.209,5.078-23.393,12.695-33.137,22.293c-0.348,0.34-0.705,0.66-1.049,1.004
		c-1.072,1.082-2.1,2.219-3.133,3.348c-0.705,0.77-1.426,1.512-2.115,2.305c-0.61,0.703-1.184,1.442-1.78,2.156
		c-1.07,1.289-2.14,2.574-3.168,3.918c-0.088,0.117-0.17,0.238-0.26,0.355c-4.392,5.789-8.406,12.078-11.939,18.875h0.131
		c-0.043,0.082-0.09,0.16-0.131,0.238H348.375z" style="fill: rgb(0, 0, 0);"></path>
	<polygon class="st0" points="115.046,416 115.046,511.371 115.044,511.758 115.046,511.758 115.046,512 396.957,512 396.957,416 	
		" style="fill: rgb(0, 0, 0);"></polygon>
	<path class="st0" d="M498.331,29.387c-8.027-9.094-19.447-14.312-31.328-14.312h-47.744V0.27V0.242l0,0V0H92.742v15.074H44.999
		c-11.887,0-23.306,5.218-31.336,14.312C3.906,40.442-0.305,56.43,1.775,74.465c0.369,7.922,4.367,49.316,47.211,78.77
		c24.732,17.008,48.424,24.629,69.44,27.938c29.008,45.328,79.76,75.398,137.576,75.398c57.805,0,108.558-30.07,137.568-75.398
		c21.016-3.305,44.709-10.93,69.445-27.938c42.84-29.453,46.842-70.848,47.211-78.77C512.304,56.43,508.093,40.442,498.331,29.387z
		 M476.238,71.016l-0.125,0.852l-0.002,1.031c-0.029,1.246-1.115,30.656-32.447,52.195c-8.976,6.172-17.635,10.719-26.041,14.184
		c-1.836,0.711-3.668,1.43-5.553,2.043c4.664-15.184,7.19-31.297,7.19-48.008V49.226h47.744c1.498,0,3.711,0.481,5.726,2.758
		C476.009,55.703,477.288,62.637,476.238,71.016z M253.964,155.219l-33.658,18.73c-1.422,0.793-3.174,0.688-4.49-0.274
		c-1.312-0.949-1.959-2.586-1.644-4.18l7.412-37.801c0.279-1.418-0.193-2.883-1.254-3.863l-28.213-26.23
		c-1.191-1.106-1.633-2.805-1.129-4.352s1.859-2.664,3.474-2.859l38.236-4.633c1.436-0.172,2.678-1.078,3.291-2.391l16.219-34.93
		c0.687-1.477,2.162-2.422,3.795-2.422c1.625,0,3.102,0.945,3.787,2.422l16.22,34.93c0.612,1.312,1.854,2.219,3.289,2.391
		l38.236,4.633c1.615,0.195,2.971,1.312,3.474,2.859c0.504,1.547,0.063,3.246-1.127,4.352l-28.215,26.23
		c-1.059,0.98-1.541,2.445-1.26,3.863l7.418,37.801c0.313,1.594-0.328,3.23-1.648,4.18c-1.316,0.961-3.06,1.066-4.486,0.274
		l-33.664-18.73C256.769,154.52,255.23,154.52,253.964,155.219z M68.331,125.094c-31.326-21.539-32.41-50.949-32.438-52.016
		l-0.006-1.035l-0.131-1.027c-1.043-8.379,0.232-15.312,3.516-19.031c2.01-2.277,4.222-2.758,5.726-2.758h47.742v44.086
		c0,14.246,1.928,28.02,5.357,41.192c0.559,2.308,1.076,4.629,1.725,6.926C89.732,137.801,79.257,132.602,68.331,125.094z" style="fill: rgb(0, 0, 0);"></path>
</g>
</svg>
