<!--?xml version="1.0" encoding="utf-8"?-->
<!-- Generator: Adobe Illustrator 18.1.1, SVG Export Plug-In . SVG Version: 6.00 Build 0)  -->

<svg version="1.1" id="_x32_" xmlns="http://www.w3.org/2000/svg" xmlns:xlink="http://www.w3.org/1999/xlink" x="0px" y="0px" viewBox="0 0 512 512" style="width: 256px; height: 256px; opacity: 1;" xml:space="preserve">
<style type="text/css">
	.st0{fill:#4B4B4B;}
</style>
<g>
	<path class="st0" d="M512,56V16H272V0h-32v16H0v40h24v260.406H0v40h512v-40h-24V56H512z M56,316.406V56h400v260.406H56z" style="fill: rgb(0, 0, 0);"></path>
	<rect x="240" y="368" class="st0" width="32" height="144" style="fill: rgb(0, 0, 0);"></rect>
	<polygon class="st0" points="113.274,512 145.274,512 212.18,368 180.18,368 	" style="fill: rgb(0, 0, 0);"></polygon>
	<polygon class="st0" points="299.82,368 366.727,512 398.727,512 331.82,368 	" style="fill: rgb(0, 0, 0);"></polygon>
	<path class="st0" d="M239.766,153.844c-12-14.477-30.172-23.766-50.438-23.766c-0.859,0-1.843,0-2.937,0.07
		c-0.016,0-0.016,0-0.047,0c-0.016,0-0.031,0-0.062,0v0.008c-34.641,1.625-62.266,30.195-62.282,65.25
		c0.016,36.07,29.266,65.328,65.328,65.336c36.079-0.008,65.328-29.266,65.344-65.336c0-15.79-5.641-30.266-14.89-41.539
		L239.766,153.844z M228.562,159.195l-38.922,34.906v-52.125C205,142.054,218.813,148.703,228.562,159.195z" style="fill: rgb(0, 0, 0);"></path>
	<rect x="292" y="134.078" class="st0" width="96" height="24" style="fill: rgb(0, 0, 0);"></rect>
	<rect x="292" y="182.078" class="st0" width="96" height="24" style="fill: rgb(0, 0, 0);"></rect>
	<rect x="292" y="230.078" class="st0" width="64" height="24" style="fill: rgb(0, 0, 0);"></rect>
</g>
</svg>
